<svg width="1024" height="1024" xmlns="http://www.w3.org/2000/svg" p-id="5449" version="1.1" class="icon" t="1704898559139">

 <g>
  <title>Layer 1</title>
  <path id="svg_1" p-id="5450" fill="#41CC8B" d="m268.34457,32.83896a156.28464,156.28464 0 0 0 -156.28464,156.28464l0,647.19102a156.28464,156.28464 0 0 0 156.28464,155.32584l487.31087,0a156.28464,156.28464 0 0 0 156.28464,-156.28464l0,-481.07866a59.44569,59.44569 0 0 0 -17.97753,-40.98876l-261.51311,-263.67041a60.40449,60.40449 0 0 0 -42.18726,-17.25843l-321.91761,0.4794z"/>
  <path id="svg_2" p-id="5451" fill="#05B25F" d="m896.16595,313.23654l-261.51311,-263.67041a58.48689,58.48689 0 0 0 -30.44194,-15.82023a5.99251,5.99251 0 0 0 -6.95132,5.75281l0,127.2809a182.65168,182.65168 0 0 0 182.65169,182.65169l126.8015,0a5.75281,5.75281 0 0 0 5.99251,-6.71161a58.00749,58.00749 0 0 0 -16.53933,-29.48315z"/>
  <path id="svg_3" p-id="5452" fill="#B0F9D7" d="m786.62288,320.18785l116.49438,0a40.74906,40.74906 0 0 0 -6.95131,-6.95131l-261.51311,-263.67041a93.96255,93.96255 0 0 0 -7.91011,-6.47191l0,117.21348a159.88015,159.88015 0 0 0 159.88015,159.88015z"/>
  <path id="svg_4" p-id="5453" fill="#FFFFFF" d="m535.87439,301.26419l-38.35206,35.95505a219.80524,219.80524 0 0 1 0,323.83521l38.35206,36.19476a269.18352,269.18352 0 0 0 0,-395.98502zm-152.92884,143.82022l-57.28839,54.65169l57.28839,53.93258a71.91011,71.91011 0 0 0 0,-108.10487l0,-0.4794zm76.46442,-71.91011l-38.11236,35.95505a122.24719,122.24719 0 0 1 0,180.01499l38.11236,35.95505a171.38577,171.38577 0 0 0 0,-251.92509zm0,0"/>
 </g>
</svg>