<?xml version="1.0" standalone="no"?><!DOCTYPE svg PUBLIC "-//W3C//DTD SVG 1.1//EN" "http://www.w3.org/Graphics/SVG/1.1/DTD/svg11.dtd"><svg t="1704898559139" class="icon" viewBox="0 0 1024 1024" version="1.1" xmlns="http://www.w3.org/2000/svg" p-id="5449" xmlns:xlink="http://www.w3.org/1999/xlink" width="64" height="64"><path d="M245.932584 0.479401a156.284644 156.284644 0 0 0-156.284644 156.284644v647.191011A156.284644 156.284644 0 0 0 245.932584 959.280899h487.310862a156.284644 156.284644 0 0 0 156.284644-156.284644V321.917603A59.445693 59.445693 0 0 0 871.550562 280.928839L610.037453 17.258427a60.404494 60.404494 0 0 0-42.187266-17.258427z" fill="#41CC8B" p-id="5450"></path><path d="M871.550562 280.928839L610.037453 17.258427a58.486891 58.486891 0 0 0-30.441947-15.820225 5.992509 5.992509 0 0 0-6.951311 5.752809v127.280899a182.651685 182.651685 0 0 0 182.651685 182.651686h126.801498a5.752809 5.752809 0 0 0 5.99251-6.711611A58.007491 58.007491 0 0 0 871.550562 280.928839z" fill="#05B25F" p-id="5451"></path><path d="M762.007491 287.88015h116.494382A40.749064 40.749064 0 0 0 871.550562 280.928839L610.037453 17.258427a93.962547 93.962547 0 0 0-7.910112-6.47191v117.213483a159.88015 159.88015 0 0 0 159.88015 159.88015z" fill="#B0F9D7" p-id="5452"></path><path d="M518.951311 298.187266l-38.35206 35.955056a219.805243 219.805243 0 0 1 0 323.835206l38.35206 36.194757a269.183521 269.183521 0 0 0 0-395.985019z m-152.928839 143.820225L308.734082 496.659176l57.28839 53.932584a71.910112 71.910112 0 0 0 0-108.104869z m76.464419-71.910113l-38.112359 35.955056a122.247191 122.247191 0 0 1 0 180.014982l38.112359 35.955056a171.385768 171.385768 0 0 0 0-251.925094z m0 0" fill="#FFFFFF" p-id="5453"></path></svg>