<svg width="1024" height="1024" xmlns="http://www.w3.org/2000/svg" p-id="7464" version="1.1" class="icon" t="1704898618173">

 <g>
  <title>Layer 1</title>
  <path id="svg_1" p-id="7465" fill="#D0D5E8" d="m399.87137,343.552l25.6,41.472c39.168,66.304 86.272,142.08 111.616,179.2c25.6,-15.872 69.376,-43.776 149.504,-92.416l25.6,-16.128l230.4,246.016l0,-358.4a62.464,62.464 0 0 0 -18.688,-44.8l-279.296,-279.808a63.488,63.488 0 0 0 -45.056,-18.688l-343.808,0a166.912,166.912 0 0 0 -166.912,166.912l0,470.528l311.04,-293.888z"/>
  <path id="svg_2" p-id="7466" fill="#D0D5E8" d="m699.13602,553.472c-66.304,40.448 -131.84,81.152 -143.872,89.856l-11.776,11.776l-19.456,-2.048c-19.456,-2.304 -30.72,-3.84 -140.8,-187.648l-294.144,276.992l0,114.176a166.912,166.912 0 0 0 166.912,167.424l520.448,0a166.912,166.912 0 0 0 165.888,-166.912l0,-43.264l-243.2,-260.352z"/>
  <path id="svg_3" p-id="7467" fill="#808695" d="m922.96667,298.752l-279.808,-280.064a62.976,62.976 0 0 0 -32.512,-17.152a6.4,6.4 0 0 0 -7.424,6.4l0,135.424a195.072,195.072 0 0 0 195.072,195.072l135.424,0a6.4,6.4 0 0 0 6.4,-7.424a61.184,61.184 0 0 0 -17.152,-32.256z"/>
  <path id="svg_4" p-id="7468" fill="#E8EAEC" d="m794.87978,307.2l124.416,0a43.52,43.52 0 0 0 -6.912,-8.448l-279.808,-280.064a100.352,100.352 0 0 0 -8.448,-6.912l0,124.416a170.752,170.752 0 0 0 170.752,171.008z"/>
  <path id="svg_5" p-id="7469" fill="#FFFFFF" d="m777.04501,841.77069m-208.896,0a208.896,208.896 0 1 0 417.792,0a208.896,208.896 0 1 0 -417.792,0z"/>
  <path id="svg_6" p-id="7470" fill="#FF665A" d="m778.06905,673.32269a168.448,168.448 0 1 0 167.424,168.448a168.448,168.448 0 0 0 -167.424,-168.448zm79.104,207.104a25.6,25.6 0 0 1 -36.608,36.608l-37.888,-37.888l-38.144,37.888a25.6,25.6 0 0 1 -36.608,-36.608l38.144,-37.888l-38.144,-38.144a25.6,25.6 0 0 1 36.608,-35.328l38.144,37.888l37.888,-37.888a25.6,25.6 0 0 1 36.608,36.352l-38.144,38.144l38.144,36.864z"/>
 </g>
</svg>