<?xml version="1.0" standalone="no"?><!DOCTYPE svg PUBLIC "-//W3C//DTD SVG 1.1//EN" "http://www.w3.org/Graphics/SVG/1.1/DTD/svg11.dtd"><svg t="1704898618173" class="icon" viewBox="0 0 1024 1024" version="1.1" xmlns="http://www.w3.org/2000/svg" p-id="7464" xmlns:xlink="http://www.w3.org/1999/xlink" width="64" height="64"><path d="M379.392 343.552l25.6 41.472c39.168 66.304 86.272 142.08 111.616 179.2 25.6-15.872 69.376-43.776 149.504-92.416l25.6-16.128 230.4 246.016v-358.4a62.464 62.464 0 0 0-18.688-44.8L624.128 18.688A63.488 63.488 0 0 0 579.072 0H235.264a166.912 166.912 0 0 0-166.912 166.912V637.44z" fill="#D0D5E8" p-id="7465"></path><path d="M678.4 553.472c-66.304 40.448-131.84 81.152-143.872 89.856l-11.776 11.776-19.456-2.048c-19.456-2.304-30.72-3.84-140.8-187.648L68.352 742.4v114.176A166.912 166.912 0 0 0 235.264 1024h520.448A166.912 166.912 0 0 0 921.6 857.088v-43.264z" fill="#D0D5E8" p-id="7466"></path><path d="M903.936 298.752L624.128 18.688a62.976 62.976 0 0 0-32.512-17.152 6.4 6.4 0 0 0-7.424 6.4V143.36a195.072 195.072 0 0 0 195.072 195.072h135.424a6.4 6.4 0 0 0 6.4-7.424 61.184 61.184 0 0 0-17.152-32.256z" fill="#808695" p-id="7467"></path><path d="M786.432 307.2h124.416a43.52 43.52 0 0 0-6.912-8.448L624.128 18.688a100.352 100.352 0 0 0-8.448-6.912v124.416A170.752 170.752 0 0 0 786.432 307.2z" fill="#E8EAEC" p-id="7468"></path><path d="M754.176 815.104m-208.896 0a208.896 208.896 0 1 0 417.792 0 208.896 208.896 0 1 0-417.792 0Z" fill="#FFFFFF" p-id="7469"></path><path d="M754.176 646.656A168.448 168.448 0 1 0 921.6 815.104a168.448 168.448 0 0 0-167.424-168.448z m79.104 207.104a25.6 25.6 0 0 1-36.608 36.608l-37.888-37.888-38.144 37.888a25.6 25.6 0 0 1-36.608-36.608l38.144-37.888-38.144-38.144A25.6 25.6 0 0 1 720.64 742.4l38.144 37.888L796.672 742.4a25.6 25.6 0 0 1 36.608 36.352l-38.144 38.144z" fill="#FF665A" p-id="7470"></path></svg>