<?xml version="1.0" standalone="no"?><!DOCTYPE svg PUBLIC "-//W3C//DTD SVG 1.1//EN" "http://www.w3.org/Graphics/SVG/1.1/DTD/svg11.dtd"><svg t="1704898578264" class="icon" viewBox="0 0 1024 1024" version="1.1" xmlns="http://www.w3.org/2000/svg" p-id="6069" xmlns:xlink="http://www.w3.org/1999/xlink" width="64" height="64"><path d="M240.070384 0.000237A154.203989 154.203989 0 0 0 85.629523 154.441099v639.555716a154.203989 154.203989 0 0 0 154.440861 154.440862h481.324895a154.440862 154.440862 0 0 0 154.440862-154.440862v-476.1137a58.507504 58.507504 0 0 0-17.054819-41.452685L599.64282 17.291928a58.744377 58.744377 0 0 0-40.268323-17.291691z" fill="#3F70FF" p-id="6070"></path><path d="M858.781322 276.43043L599.64282 17.291928a57.323142 57.323142 0 0 0-30.082806-15.870456 5.68494 5.68494 0 0 0-6.632429 5.921812v125.305546A180.496835 180.496835 0 0 0 743.42442 313.382538h125.305546a5.921812 5.921812 0 0 0 5.68494-6.869302 56.13878 56.13878 0 0 0-15.633584-30.082806z" fill="#2A58D8" p-id="6071"></path><path d="M748.872487 284.247222h115.356902a51.164457 51.164457 0 0 0-6.395557-7.816792L599.64282 17.291928a65.850552 65.850552 0 0 0-7.816792-6.395557v115.120029A158.230822 158.230822 0 0 0 748.872487 284.247222z" fill="#C6E1FF" p-id="6072"></path><path d="M229.17425 424.001989h52.585692a101.618297 101.618297 0 0 1 69.166767 21.081652 81.484136 81.484136 0 0 1 25.345356 64.903061 84.089733 84.089733 0 0 1-25.108484 65.850552 97.591465 97.591465 0 0 1-67.508659 21.792269h-54.480672z m50.216967 145.67658a51.875075 51.875075 0 0 0 57.796887-59.691867 51.164457 51.164457 0 0 0-57.796887-58.270632h-11.843624v118.436244zM427.910267 576.547871a91.43278 91.43278 0 0 1-23.687249-66.561169 89.774673 89.774673 0 0 1 23.687249-65.850551 82.905371 82.905371 0 0 1 61.823719-23.687249 82.668498 82.668498 0 0 1 61.586847 23.687249 90.248418 90.248418 0 0 1 23.687249 65.850551 91.43278 91.43278 0 0 1-23.687249 66.561169 80.536646 80.536646 0 0 1-61.586847 23.687249 80.773518 80.773518 0 0 1-61.823719-23.687249z m94.748995-22.029141A71.061746 71.061746 0 0 0 535.687249 509.986702a68.456149 68.456149 0 0 0-12.791115-43.82141 44.295155 44.295155 0 0 0-67.508658 0 68.456149 68.456149 0 0 0-12.791115 43.82141 71.061746 71.061746 0 0 0 12.791115 44.532028 43.110793 43.110793 0 0 0 67.508658 0zM628.541264 577.969106a87.64282 87.64282 0 0 1-25.582229-66.561169A88.353438 88.353438 0 0 1 630.436244 444.609896a85.984713 85.984713 0 0 1 62.534336-23.687249 78.404793 78.404793 0 0 1 56.13878 22.266014l-20.134162 22.029141a52.585692 52.585692 0 0 0-35.294-14.449222 45.479518 45.479518 0 0 0-36.004618 15.870457 63.481827 63.481827 0 0 0-14.449222 43.82141 66.324296 66.324296 0 0 0 13.738604 44.532028 44.295155 44.295155 0 0 0 36.004618 16.107329 55.19129 55.19129 0 0 0 39.557706-17.054819l20.134161 21.555396a80.299773 80.299773 0 0 1-60.876229 25.582229 86.221585 86.221585 0 0 1-63.244954-23.213504z" fill="#F5F6FA" p-id="6073"></path></svg>