<svg width="1024" height="1024" xmlns="http://www.w3.org/2000/svg" p-id="4986" version="1.1" class="icon" t="1704898547881">

 <g>
  <title>Layer 1</title>
  <path id="svg_1" p-id="4987" fill="#3F70FF" d="m251.26485,0a166.91121,166.91121 0 0 0 -166.91121,166.65521l0,691.19672a166.65521,166.65521 0 0 0 166.91121,166.14321l520.44553,0a166.65521,166.65521 0 0 0 167.9352,-167.16721l0,-513.53356a63.2317,63.2317 0 0 0 -18.43191,-44.79979l-281.08667,-280.06267a64.51169,64.51169 0 0 0 -44.79978,-18.43191l-344.06237,0z"/>
  <path id="svg_2" p-id="4988" fill="#2A58D8" d="m923.34187,298.49458l-280.06267,-280.06267a63.7437,63.7437 0 0 0 -33.27984,-17.15192a6.14397,6.14397 0 0 0 -7.16796,6.39997l0,135.42336a195.07107,195.07107 0 0 0 195.07107,195.07107l135.42336,0a6.14397,6.14397 0 0 0 6.14397,-7.16796a61.43971,61.43971 0 0 0 -16.12793,-32.51185z"/>
  <path id="svg_3" p-id="4989" fill="#C6E1FF" d="m805.58243,307.19854l124.67141,0a55.29574,55.29574 0 0 0 -6.91197,-8.44796l-280.06267,-280.31867a71.16766,71.16766 0 0 0 -7.67996,-6.91196l0,124.4154a171.00719,171.00719 0 0 0 169.98319,171.26319z"/>
  <path id="svg_4" p-id="4990" fill="#FFFFFF" d="m243.18522,273.9187m33.79184,0l274.94269,0q33.79184,0 33.79184,33.79184l0,0.256q0,33.79184 -33.79184,33.79184l-274.94269,0q-33.79184,0 -33.79184,-33.79184l0,-0.256q0,-33.79184 33.79184,-33.79184z"/>
  <path id="svg_5" p-id="4991" fill="#FFFFFF" d="m237.1853,480.46173m33.79184,0l482.04571,0q33.79184,0 33.79184,33.79184l0,0.256q0,33.79183 -33.79184,33.79183l-482.04571,0q-33.79184,0 -33.79184,-33.79183l0,-0.256q0,-33.79184 33.79184,-33.79184z"/>
  <path id="svg_6" p-id="4992" fill="#FFFFFF" d="m237.18531,685.00476m33.79184,0l482.04571,0q33.79184,0 33.79184,33.79184l0,0.25599q0,33.79184 -33.79184,33.79184l-482.04571,0q-33.79184,0 -33.79184,-33.79184l0,-0.25599q0,-33.79184 33.79184,-33.79184z"/>
 </g>
</svg>