<?xml version="1.0" standalone="no"?><!DOCTYPE svg PUBLIC "-//W3C//DTD SVG 1.1//EN" "http://www.w3.org/Graphics/SVG/1.1/DTD/svg11.dtd"><svg t="1704898562400" class="icon" viewBox="0 0 1024 1024" version="1.1" xmlns="http://www.w3.org/2000/svg" p-id="5604" xmlns:xlink="http://www.w3.org/1999/xlink" width="64" height="64"><path d="M169.225726 0A165.792898 165.792898 0 0 0 3.432828 165.792898v686.565682a165.792898 165.792898 0 0 0 165.792898 165.792898h516.95853a165.792898 165.792898 0 0 0 165.792898-165.792898v-511.110008a64.079464 64.079464 0 0 0-18.308418-44.753911L555.482493 18.562702A63.062329 63.062329 0 0 0 512 0z" fill="#FC4A49" p-id="5605"></path><path d="M833.668736 296.494661L555.482493 18.562702a61.536628 61.536628 0 0 0-32.294015-17.037 6.102806 6.102806 0 0 0-7.119941 6.357089v134.516017A193.764092 193.764092 0 0 0 709.83263 337.434318h134.516017a6.35709 6.35709 0 0 0 6.102806-7.374224 62.045195 62.045195 0 0 0-16.782717-33.565433z" fill="#F91716" p-id="5606"></path><path d="M716.698287 304.886019h123.836106a99.679166 99.679166 0 0 0-6.865657-8.391358L555.482493 18.562702a52.382419 52.382419 0 0 0-8.391358-6.865657v123.581823a169.607152 169.607152 0 0 0 169.607152 169.607151z" fill="#FFC3C3" p-id="5607"></path><path d="M170.242861 455.167619h127.141793v30.768313H211.436802v43.22821H283.144773v31.276881H211.436802v50.856717h87.727837V642.574621H170.242861zM340.867147 455.167619h45.516762l34.836851 87.21927c1.779985 4.577105 4.068537 10.425627 6.35709 17.799851l6.102806 18.054134H435.714924l3.305687-8.899925 3.051403-9.154209a152.570151 152.570151 0 0 1 6.102806-17.799851l34.074-87.21927h45.008195V642.574621h-37.633971v-78.827911c0-7.628508 0-17.799851 1.779986-30.768314q0-6.865657 1.525701-16.019866V502.464366l-16.782717 43.736776-30.768313 78.573628h-23.648374l-31.785448-78.573628-16.528433-43.736776V516.95853q0 9.662776 1.525701 16.019866c0 12.968463 2.034269 23.139806 2.034269 30.768314V642.574621h-36.108269zM577.605165 455.167619h40.939657v155.112987h83.150733V642.574621h-124.09039z" fill="#F5F6FA" p-id="5608"></path></svg>