<svg width="1024" height="1024" xmlns="http://www.w3.org/2000/svg" p-id="5604" version="1.1" class="icon" t="1704898562400">

 <g>
  <title>Layer 1</title>
  <path id="svg_1" p-id="5605" fill="#FC4A49" d="m253.52071,0a165.7929,165.7929 0 0 0 -165.7929,165.7929l0,686.56568a165.7929,165.7929 0 0 0 165.7929,165.7929l516.95853,0a165.7929,165.7929 0 0 0 165.79289,-165.7929l0,-511.11001a64.07946,64.07946 0 0 0 -18.30841,-44.75391l-278.18625,-277.93196a63.06233,63.06233 0 0 0 -43.48249,-18.5627l-342.77427,0z"/>
  <path id="svg_2" p-id="5606" fill="#F91716" d="m917.00212,293.16132l-278.18625,-277.93196a61.53663,61.53663 0 0 0 -32.29401,-17.037a6.10281,6.10281 0 0 0 -7.11994,6.35709l0,134.51602a193.76409,193.76409 0 0 0 193.76409,195.03551l134.51602,0a6.35709,6.35709 0 0 0 6.1028,-7.37423a62.04519,62.04519 0 0 0 -16.78271,-33.56543z"/>
  <path id="svg_3" p-id="5607" fill="#FFC3C3" d="m800.03167,301.55268l123.8361,0a99.67917,99.67917 0 0 0 -6.86565,-8.39136l-278.18625,-277.93196a52.38242,52.38242 0 0 0 -8.39135,-6.86565l0,123.58182a169.60715,169.60715 0 0 0 169.60715,169.60715z"/>
  <path id="svg_4" p-id="5608" fill="#F5F6FA" d="m246.27365,455.16762l127.14179,0l0,30.76831l-85.94785,0l0,43.22821l71.70797,0l0,31.27688l-71.70797,0l0,50.85672l87.72784,0l0,31.27688l-128.92178,0l0,-187.407zm170.62429,0l45.51676,0l34.83685,87.21927c1.77999,4.5771 4.06854,10.42563 6.35709,17.79985l6.10281,18.05413l2.03426,0l3.30569,-8.89992l3.0514,-9.15421a152.57015,152.57015 0 0 1 6.10281,-17.79985l34.074,-87.21927l45.00819,0l0,187.407l-37.63397,0l0,-78.82791c0,-7.62851 0,-17.79985 1.77999,-30.76831q0,-6.86566 1.5257,-16.01987l0,-14.49416l-16.78272,43.73677l-30.76831,78.57363l-23.64837,0l-31.78545,-78.57363l-16.52843,-43.73677l0,14.49416q0,9.66278 1.5257,16.01987c0,12.96846 2.03427,23.1398 2.03427,30.76831l0,78.82791l-36.10827,0l0,-187.407zm236.73802,0l40.93965,0l0,155.11299l83.15074,0l0,32.29401l-124.09039,0l0,-187.407z"/>
 </g>
</svg>