<?xml version="1.0" standalone="no"?><!DOCTYPE svg PUBLIC "-//W3C//DTD SVG 1.1//EN" "http://www.w3.org/Graphics/SVG/1.1/DTD/svg11.dtd"><svg t="1704898522007" class="icon" viewBox="0 0 1024 1024" version="1.1" xmlns="http://www.w3.org/2000/svg" p-id="4219" xmlns:xlink="http://www.w3.org/1999/xlink" width="64" height="64"><path d="M942.846169 216.067434l-192.255183-204.79913A38.143838 38.143838 0 0 0 722.943103 0.004352h-614.397388a40.191829 40.191829 0 0 0-38.911835 41.471824v941.052A40.191829 40.191829 0 0 0 108.545715 1024h806.90857a40.191829 40.191829 0 0 0 38.911835-41.471824V245.507309a42.751818 42.751818 0 0 0-11.519951-29.439875zM424.96037 684.801442h-39.167834v-182.783224H384.000544l-76.799674 182.783224h-35.071851l-78.591666-182.783224v182.783224H153.601523v-255.998912h45.823805l89.087622 204.799129h1.279994l88.831623-204.799129h46.335803z m155.39134-99.583577h-66.303719v99.583577h-39.167833v-255.998912h106.239548q91.391612 0 91.391612 76.799673c0 53.503773-30.975868 79.615662-92.159608 79.615662z m311.038678 44.031813h-38.655836v55.551764h-37.375841v-55.551764H691.199238v-36.863844l126.207464-163.583304h35.839848v169.21528h38.655835z" fill="#4070FF" p-id="4220"></path><path d="M722.687105 598.01781h92.671606v-119.80749h-1.023996l-91.64761 119.80749zM619.775542 472.834342a67.071715 67.071715 0 0 0-41.983822-10.751954h-63.743729v89.855618h63.743729a66.815716 66.815716 0 0 0 42.239821-10.751954 42.495819 42.495819 0 0 0 13.311943-34.559853 39.679831 39.679831 0 0 0-13.567942-33.791857z" fill="#4070FF" p-id="4221"></path></svg>