<?xml version="1.0" standalone="no"?><!DOCTYPE svg PUBLIC "-//W3C//DTD SVG 1.1//EN" "http://www.w3.org/Graphics/SVG/1.1/DTD/svg11.dtd"><svg t="1704898514523" class="icon" viewBox="0 0 1024 1024" version="1.1" xmlns="http://www.w3.org/2000/svg" p-id="3914" xmlns:xlink="http://www.w3.org/1999/xlink" width="64" height="64"><path d="M290.819373 452.616714a67.070977 67.070977 0 0 0-41.98336-10.751836H185.092985v89.854629h63.743028a66.814981 66.814981 0 0 0 42.239356-10.751836 42.495352 42.495352 0 0 0 13.311797-34.559473 39.679395 39.679395 0 0 0-13.567793-33.791484z" fill="#FC4949" p-id="3915"></path><path d="M942.84143 215.564329l-192.253068-204.796877A38.143418 38.143418 0 0 0 722.940783 0.015616h-614.39063a40.191387 40.191387 0 0 0-38.911407 40.959375v941.041649A40.191387 40.191387 0 0 0 108.550153 1024h806.899694a40.191387 40.191387 0 0 0 38.911407-41.471368V245.00388a42.751348 42.751348 0 0 0-11.519824-29.439551z m-691.18946 349.434671h-66.558985V665.605466H145.925583V409.609369h106.238379q91.390606 0 91.390607 76.798829c0 52.4792-30.975528 78.590801-92.158595 78.590802zM616.446407 665.605466h-38.143418l-132.349982-192.765061h-1.535976V665.605466h-38.911407V409.609369h39.423399l130.814005 190.461096h1.535976V409.609369h39.167403z m299.515433-27.647579a153.597658 153.597658 0 0 1-46.079298 24.063633 212.220764 212.220764 0 0 1-61.439063 8.447871 119.038185 119.038185 0 0 1-94.974551-38.65541A135.677931 135.677931 0 0 1 681.725412 537.607417a139.773868 139.773868 0 0 1 31.743516-94.718555 110.590313 110.590313 0 0 1 89.854629-39.679395 122.62213 122.62213 0 0 1 76.798829 22.27166 98.814493 98.814493 0 0 1 34.559473 64.255021h-38.911406a59.903086 59.903086 0 0 0-23.551641-38.655411 81.406759 81.406759 0 0 0-48.895255-13.311797 73.47088 73.47088 0 0 0-59.135098 25.59961 107.51836 107.51836 0 0 0-23.295645 74.238867 104.702403 104.702403 0 0 0 21.503672 71.166915 87.294669 87.294669 0 0 0 70.654923 25.59961 145.661779 145.661779 0 0 0 35.583457-4.60793 102.398438 102.398438 0 0 0 28.671563-12.543809V563.207027H806.39551v-33.791485h109.56633z" fill="#FC4949" p-id="3916"></path></svg>