<?xml version="1.0" standalone="no"?><!DOCTYPE svg PUBLIC "-//W3C//DTD SVG 1.1//EN" "http://www.w3.org/Graphics/SVG/1.1/DTD/svg11.dtd"><svg t="1704898614292" class="icon" viewBox="0 0 1024 1024" version="1.1" xmlns="http://www.w3.org/2000/svg" p-id="7311" xmlns:xlink="http://www.w3.org/1999/xlink" width="64" height="64"><path d="M286.791626 0.000237a154.203989 154.203989 0 0 0-154.440862 154.440862v639.555716a154.203989 154.203989 0 0 0 154.440862 154.440862h481.324894a154.440862 154.440862 0 0 0 154.440862-154.440862v-476.1137A58.507504 58.507504 0 0 0 905.739435 276.43043L646.364062 17.291928a58.744377 58.744377 0 0 0-41.452686-17.291691z" fill="#3F70FF" p-id="7312"></path><path d="M905.739435 276.43043L646.364062 17.291928a57.323142 57.323142 0 0 0-30.082806-15.870456 5.68494 5.68494 0 0 0-6.63243 5.921812v125.305546A180.496835 180.496835 0 0 0 790.145662 313.382538h125.305545a5.921812 5.921812 0 0 0 5.68494-6.869302A56.13878 56.13878 0 0 0 905.739435 276.43043z" fill="#2A58D8" p-id="7313"></path><path d="M796.541219 284.247222h115.356901a51.164457 51.164457 0 0 0-6.158685-7.816792L646.364062 17.291928a51.164457 51.164457 0 0 0-7.816792-6.395557v115.120029a158.230822 158.230822 0 0 0 157.993949 158.230822z" fill="#C6E1FF" p-id="7314"></path><path d="M195.121973 424.001989h38.373343l15.159839 84.563478 4.500578 27.714081 4.263704 27.714081q5.68494-26.529719 12.080497-55.428162l22.266014-84.563478h33.635893l22.266014 84.563478c1.658107 7.106175 3.553087 16.344202 6.158685 27.240336l7.106174 28.187826 8.52741-55.428162 15.159839-84.563478h36.478363L384.619963 597.629523h-47.374497l-21.555397-85.984713c-3.316215-15.159839-6.158685-28.661571-8.290537-40.031451l-3.78996 19.897289c-1.658107 7.57992-3.079342 14.212349-4.500577 20.134162L278.264216 597.629523h-47.374497zM458.761052 582.943428a65.850552 65.850552 0 0 1-21.318524-50.690712 65.376807 65.376807 0 0 1 21.318524-51.164457 68.456149 68.456149 0 0 1 47.374497-18.239182 69.403639 69.403639 0 0 1 47.374498 18.239182 66.087424 66.087424 0 0 1 21.081651 51.164457 66.561169 66.561169 0 0 1-21.081651 50.690712 73.904216 73.904216 0 0 1-96.643975 0z m71.061746-21.318523a49.032605 49.032605 0 0 0 7.816792-29.372189 49.743222 49.743222 0 0 0-7.816792-29.372188 27.003464 27.003464 0 0 0-23.687249-11.36988 26.529719 26.529719 0 0 0-23.687249 11.36988 47.374497 47.374497 0 0 0-8.053664 29.845933 47.374497 47.374497 0 0 0 8.053664 29.372189 26.292846 26.292846 0 0 0 23.687249 11.133006 26.766591 26.766591 0 0 0 23.687249-11.606751zM608.227591 466.165292h31.030296l2.605597 23.687249a47.374497 47.374497 0 0 1 41.215813-26.529719 49.50635 49.50635 0 0 1 17.054819 2.84247l-6.869302 29.845934a51.638202 51.638202 0 0 0-14.922966-2.131853 36.004618 36.004618 0 0 0-33.162149 25.345356V597.629523h-36.952108zM728.558815 582.706556a74.851706 74.851706 0 0 1-15.870457-50.45384 71.061746 71.061746 0 0 1 18.476054-50.927585 56.375652 56.375652 0 0 1 42.163303-18.476054 55.428162 55.428162 0 0 1 36.715236 14.449222l-1.658108-21.792269v-45.242645h37.899598V597.629523H815.72789l-3.079342-13.501732a60.402484 60.402484 0 0 1-40.03145 16.817946 54.717545 54.717545 0 0 1-44.058283-18.239181z m79.826028-23.687249v-57.796887a40.268323 40.268323 0 0 0-26.766591-9.948644 26.292846 26.292846 0 0 0-21.318524 10.422389 47.374497 47.374497 0 0 0-8.764282 30.082806c0 27.240336 9.948644 40.742068 30.082806 40.742068a34.109638 34.109638 0 0 0 26.766591-13.501732z" fill="#F5F6FA" p-id="7315"></path></svg>