<svg t="1709813644883" class="icon" viewBox="0 0 1024 1024" version="1.1" xmlns="http://www.w3.org/2000/svg" p-id="2416" width="200" height="200"><path d="M774.54 420.63A287 287 0 0 0 206.5 479c0 2.31 0 4.62 0.09 6.92C125.28 501 63.5 572.4 63.5 658c0 96.5 78.5 175 175 175a32.36 32.36 0 0 0 7.8-1l502.14 1h0.06c114.14 0 207-92.86 207-207 0-105.32-79.07-192.52-180.96-205.37zM748.51 769l-521.95-1v0.36A111 111 0 0 1 238.5 547h2.48a33 33 0 0 0 4.52-0.31 32 32 0 0 0 27.21-36.17A225.19 225.19 0 0 1 270.5 479c0-123 100-223 223-223a222.56 222.56 0 0 1 215.87 166.7 206.64 206.64 0 0 0-144.08 106.87 32 32 0 0 0 56.62 29.85 142.74 142.74 0 0 1 122.67-76.35 32 32 0 0 0 5.36-0.05c78.19 0.78 141.56 64.61 141.56 143 0 78.83-64.15 142.98-142.99 142.98z" p-id="2417" fill="#2AC5B3"></path></svg>