<svg width="1024" height="1024" xmlns="http://www.w3.org/2000/svg" p-id="6226" version="1.1" class="icon" t="1704898582452">

 <g>
  <title>Layer 1</title>
  <path id="svg_1" p-id="6227" fill="#41CC8B" d="m273.50378,44.02287a152.67505,152.67505 0 0 0 -151.7384,152.67505l0,632.24331a152.67505,152.67505 0 0 0 151.7384,151.7384l476.0558,0a152.67505,152.67505 0 0 0 152.67505,-152.67505l0,-469.73337a57.13606,57.13606 0 0 0 -17.09399,-40.27624l-255.94146,-257.5806a58.07272,58.07272 0 0 0 -41.21289,-17.09399l-314.48251,0.70249z"/>
  <path id="svg_2" p-id="6228" fill="#05B25F" d="m888.53092,321.34124l-255.94146,-257.5806a57.60439,57.60439 0 0 0 -29.73885,-15.689a5.85411,5.85411 0 0 0 -6.79076,5.8541l0,124.57535a178.43311,178.43311 0 0 0 178.43311,178.43311l123.40453,0a5.85411,5.85411 0 0 0 5.8541,-6.79076a55.96524,55.96524 0 0 0 -15.22067,-28.8022z"/>
  <path id="svg_3" p-id="6229" fill="#B0F9D7" d="m780.81539,328.36617l114.03796,0a51.98445,51.98445 0 0 0 -6.32243,-7.02493l-255.94146,-257.5806l-7.72741,-6.32244l0,114.50629a156.18751,156.18751 0 0 0 155.95334,156.42168z"/>
  <path id="svg_4" p-id="6230" fill="#F5F6FA" d="m194.59046,431.30157l117.0821,0l0,28.33387l-80.31832,0l0,39.80791l67.20512,0l0,28.8022l-67.20512,0l0,46.83283l81.95746,0l0,28.8022l-118.72124,0l0,-172.57901zm182.4139,103.9689l-41.91538,-61.81934l40.5104,0l14.28402,23.41642q6.32243,11.23988 12.64486,21.77726l5.15161,-10.77155l6.32244,-11.00571l11.94237,-23.41642l39.57375,0l-41.91539,66.26846l44.72536,63.69266l-40.97873,0l-15.92317,-23.41642l-6.79076,-12.87903l-7.02493,-11.23988l-7.02492,11.23988l-6.08827,11.70821l-13.34736,23.41642l-38.87125,0l44.72535,-66.97096zm125.98034,53.15527a65.56597,65.56597 0 0 1 -19.90396,-50.11113a64.62932,64.62932 0 0 1 21.77727,-50.81363a76.57169,76.57169 0 0 1 51.0478,-17.79648a66.50263,66.50263 0 0 1 41.68122,14.51818l-17.79648,22.01143a35.12463,35.12463 0 0 0 -22.01143,-8.66407a33.25131,33.25131 0 0 0 -26.22639,11.23988a41.44706,41.44706 0 0 0 -10.30322,29.50469a40.97873,40.97873 0 0 0 10.06906,28.80219a32.78299,32.78299 0 0 0 25.52389,11.00572a46.83284,46.83284 0 0 0 27.86554,-11.00572l14.75234,23.41642a72.5909,72.5909 0 0 1 -46.83283,15.689a70.24926,70.24926 0 0 1 -49.64281,-17.79648zm135.3469,-0.23416a63.92682,63.92682 0 0 1 -20.84061,-49.87697a67.43929,67.43929 0 0 1 20.37228,-50.34531a65.56597,65.56597 0 0 1 46.83284,-18.2648a57.83855,57.83855 0 0 1 44.72536,17.56231a65.33181,65.33181 0 0 1 14.98651,44.72536a51.04779,51.04779 0 0 1 -1.87332,15.45484l-88.51406,0a35.82712,35.82712 0 0 0 13.1132,23.41642a40.27624,40.27624 0 0 0 26.46055,8.42991a62.99017,62.99017 0 0 0 32.08049,-9.1324l12.87903,21.07477a93.66568,93.66568 0 0 1 -50.11113,14.28402a71.42008,71.42008 0 0 1 -50.11114,-17.32815zm73.52756,-63.22433c0,-19.20147 -9.13241,-28.8022 -27.16305,-28.8022a29.50469,29.50469 0 0 0 -20.13812,7.25909a33.71964,33.71964 0 0 0 -11.00572,21.54311l58.30689,0zm62.99016,42.14955l0,-149.39675l37.23211,0l0,149.39675a10.77155,10.77155 0 0 0 2.5758,7.96158a6.32243,6.32243 0 0 0 5.15162,2.34165l5.15161,0l4.44912,25.28973a53.85776,53.85776 0 0 1 -19.43563,3.04413c-23.41642,0.46833 -35.12463,-12.64486 -35.12463,-38.63709z"/>
 </g>
</svg>