<?xml version="1.0" standalone="no"?><!DOCTYPE svg PUBLIC "-//W3C//DTD SVG 1.1//EN" "http://www.w3.org/Graphics/SVG/1.1/DTD/svg11.dtd"><svg t="1704898447402" class="icon" viewBox="0 0 1024 1024" version="1.1" xmlns="http://www.w3.org/2000/svg" p-id="1993" width="64" height="64" xmlns:xlink="http://www.w3.org/1999/xlink"><path d="M942.846169 216.067434l-192.255183-204.79913A38.143838 38.143838 0 0 0 722.943103 0.004352h-614.397388a40.191829 40.191829 0 0 0-38.911835 41.471824v941.052A40.191829 40.191829 0 0 0 108.545715 1024h806.90857a40.191829 40.191829 0 0 0 38.911835-41.471824V245.507309a42.751818 42.751818 0 0 0-11.519951-29.439875zM465.664197 657.409558a149.759364 149.759364 0 0 1-46.335803 23.807899A201.983142 201.983142 0 0 1 358.400653 691.201414a120.575488 120.575488 0 0 1-95.231595-38.655835A137.215417 137.215417 0 0 1 230.401197 557.825981a140.799402 140.799402 0 0 1 31.487866-94.463598 111.103528 111.103528 0 0 1 90.111617-39.423833 123.135477 123.135477 0 0 1 76.799674 22.015907 97.535585 97.535585 0 0 1 34.303854 64.255727h-37.63184a60.927741 60.927741 0 0 0-23.5519-38.655836 81.407654 81.407654 0 0 0-48.895792-13.311944 73.215689 73.215689 0 0 0-59.135749 25.599892 108.543539 108.543539 0 0 0-23.295901 74.239684 104.191557 104.191557 0 0 0 21.24791 71.167698 86.783631 86.783631 0 0 0 70.3997 26.879885 144.127387 144.127387 0 0 0 35.583849-4.60798 108.031541 108.031541 0 0 0 28.671878-11.519951v-57.087757H355.840664v-33.279859h109.823533z m86.271633 27.391884h-38.655835v-255.998912h38.655835z m224.767045-222.719054h-134.911427V537.602067h127.999456v33.279859h-127.999456v114.687512h-38.911834v-255.998912h173.823261z" fill="#FF8040" p-id="1994"></path></svg>