<?xml version="1.0" standalone="no"?><!DOCTYPE svg PUBLIC "-//W3C//DTD SVG 1.1//EN" "http://www.w3.org/Graphics/SVG/1.1/DTD/svg11.dtd"><svg t="1704898542758" class="icon" viewBox="0 0 1024 1024" version="1.1" xmlns="http://www.w3.org/2000/svg" p-id="4830" xmlns:xlink="http://www.w3.org/1999/xlink" width="64" height="64"><path d="M189.620352 0A163.318982 163.318982 0 0 0 26.30137 163.318982v676.32094a163.318982 163.318982 0 0 0 163.318982 163.318982h509.244619A163.318982 163.318982 0 0 0 862.684932 838.637965V336.156556a61.119374 61.119374 0 0 0-18.285715-43.835617L570.113503 18.285714a62.121331 62.121331 0 0 0-44.086106-18.285714z" fill="#41CC8B" p-id="4831"></path><path d="M843.898239 292.320939L570.113503 18.285714a61.620352 61.620352 0 0 0-31.812133-16.782779 6.262231 6.262231 0 0 0-7.264188 6.262231v132.508807a190.872798 190.872798 0 0 0 190.872798 190.872798h132.508807a6.262231 6.262231 0 0 0 6.262231-7.264188 59.866928 59.866928 0 0 0-16.782779-31.561644z" fill="#05B25F" p-id="4832"></path><path d="M728.923679 300.587084h121.988258a55.608611 55.608611 0 0 0-7.013698-8.266145L570.113503 18.285714A98.191781 98.191781 0 0 0 562.097847 11.522505v121.737769a167.076321 167.076321 0 0 0 166.825832 167.32681z" fill="#B0F9D7" p-id="4833"></path><path d="M273.784736 255.248532m87.420743 0l0.25049 0q87.420744 0 87.420743 87.420744l0 0.250489q0 87.420744-87.420743 87.420744l-0.25049 0q-87.420744 0-87.420743-87.420744l0-0.250489q0-87.420744 87.420743-87.420744Z" fill="#F5F6FA" p-id="4834"></path><path d="M316.618395 573.620352l-132.007827 170.83366h534.544031l-180.101761-260.007828-137.268102 196.383562-85.166341-107.209394z" fill="#F5F6FA" p-id="4835"></path></svg>