<?xml version="1.0" standalone="no"?><!DOCTYPE svg PUBLIC "-//W3C//DTD SVG 1.1//EN" "http://www.w3.org/Graphics/SVG/1.1/DTD/svg11.dtd"><svg t="1704898551871" class="icon" viewBox="0 0 1024 1024" version="1.1" xmlns="http://www.w3.org/2000/svg" p-id="5141" xmlns:xlink="http://www.w3.org/1999/xlink" width="64" height="64"><path d="M314.902048 0A159.724402 159.724402 0 0 0 155.177646 159.724402v661.435407a159.724402 159.724402 0 0 0 159.724402 159.724402h497.791387a159.724402 159.724402 0 0 0 159.724402-159.724402v-492.401914a61.733971 61.733971 0 0 0-17.638277-43.11579L686.775732 17.883254A60.754067 60.754067 0 0 0 645.129799 0z" fill="#FF803F" p-id="5142"></path><path d="M954.77956 285.642105L686.775732 17.883254a59.284211 59.284211 0 0 0-31.111962-16.413398 5.879426 5.879426 0 0 0-6.85933 6.124402V137.186603a186.67177 186.67177 0 0 0 186.671771 186.67177h129.592344a6.369378 6.369378 0 0 0 6.124402-7.104306 61.978947 61.978947 0 0 0-16.413397-31.111962z" fill="#F3671E" p-id="5143"></path><path d="M841.11066 293.726316h119.30335a96.030622 96.030622 0 0 0-6.614354-8.084211L686.775732 17.883254a41.645933 41.645933 0 0 0-8.08421-6.614354v119.058373A163.399043 163.399043 0 0 0 841.11066 293.726316z" fill="#FECEB4" p-id="5144"></path><path d="M375.656115 759.670813a78.147368 78.147368 0 0 1 0-156.04976 81.577033 81.577033 0 0 1 47.280383 16.168421l3.919617 3.184689V372.363636a26.702392 26.702392 0 0 1 26.21244-27.192344L711.27334 313.569378h1.959808a26.457416 26.457416 0 0 1 27.192345 26.457416v293.971292a73.492823 73.492823 0 0 1-23.272727 54.874641 76.677512 76.677512 0 0 1-54.139713 22.292823 78.147368 78.147368 0 0 1 0-156.294737 78.637321 78.637321 0 0 1 47.280382 16.168421l3.919618 3.184689V438.507177l-260.899522 28.172249V681.033493A78.392344 78.392344 0 0 1 375.656115 759.670813z m0 0" fill="#FFFFFF" p-id="5145"></path></svg>