<svg width="1024" height="1024" xmlns="http://www.w3.org/2000/svg" p-id="7001" version="1.1" class="icon" t="1704898602582">

 <g>
  <title>Layer 1</title>
  <path id="svg_1" p-id="7002" fill="#FC4A49" d="m253.52074,0a165.7929,165.7929 0 0 0 -165.7929,165.7929l0,686.56568a165.7929,165.7929 0 0 0 165.7929,164.77576l516.95853,0a165.7929,165.7929 0 0 0 165.7929,-165.79289l0,-510.09288a63.06233,63.06233 0 0 0 -19.07127,-44.75391l-277.42339,-277.93196a63.06233,63.06233 0 0 0 -44.75392,-18.5627l-341.50285,0z"/>
  <path id="svg_2" p-id="7003" fill="#F91716" d="m921.9968,299.3518l-277.42339,-277.93196a62.55376,62.55376 0 0 0 -32.29402,-17.037a6.35709,6.35709 0 0 0 -7.37422,6.35709l0,134.51602a194.01838,194.01838 0 0 0 193.76409,195.03551l134.51602,0a6.35709,6.35709 0 0 0 6.35709,-7.37423a62.55376,62.55376 0 0 0 -17.54557,-33.56543z"/>
  <path id="svg_3" p-id="7004" fill="#FFC3C3" d="m805.7892,307.74316l123.83611,0a104.00199,104.00199 0 0 0 -7.11994,-8.39136l-277.93196,-277.93196a66.36802,66.36802 0 0 0 -8.39136,-6.86565l0,123.58182a169.35287,169.35287 0 0 0 169.60715,169.60715z"/>
  <path id="svg_4" p-id="7005" fill="#F5F6FA" d="m238.89941,455.16762l66.36801,0c53.65384,0 80.35362,19.32555 80.35362,58.48522a53.90812,53.90812 0 0 1 -23.13981,46.78818a95.61063,95.61063 0 0 1 -56.19667,14.74845l-26.4455,0l0,67.38515l-40.93965,0l0,-187.407zm66.36801,90.52496q41.95679,0 41.95679,-32.03974a25.42836,25.42836 0 0 0 -11.18847,-22.88552a64.84231,64.84231 0 0 0 -32.03973,-6.1028l-24.15695,0l0,61.02806l25.42836,0zm118.49615,-90.52496l41.95679,0l59.50236,99.1706l20.59698,40.43109l1.27141,0l0,-15.5113c0,-6.10281 -1.27141,-11.69705 -1.77998,-16.52843c-1.27142,-12.96847 -1.77999,-24.15695 -1.77999,-33.31115l0,-74.25081l38.65111,0l0,187.407l-42.97393,0l-59.50236,-101.71343l-20.59697,-40.17681l-1.27142,0l0,15.5113l1.52571,16.52843c1.27141,12.96846 1.77998,23.90266 1.77998,33.05687l0,76.79364l-37.37969,0l0,-187.407zm225.80383,165.28433a92.55922,92.55922 0 0 1 -28.47976,-71.45369a93.06779,93.06779 0 0 1 28.98832,-71.70797a96.37348,96.37348 0 0 1 69.67371,-25.42836a89.25354,89.25354 0 0 1 63.31661,23.90266l-21.86839,23.64837a58.73951,58.73951 0 0 0 -40.1768,-15.5113a54.67097,54.67097 0 0 0 -41.9568,17.037a66.87658,66.87658 0 0 0 -16.01986,47.04247a68.40229,68.40229 0 0 0 15.25701,47.80531a58.73951,58.73951 0 0 0 45.51677,17.29128a40.17681,40.17681 0 0 0 25.42835,-7.11994l0,-36.87112l-37.1254,0l0,-30.51403l72.97939,0l0,84.16787a95.86491,95.86491 0 0 1 -66.36802,22.37696a98.15346,98.15346 0 0 1 -69.16513,-24.66551z"/>
 </g>
</svg>