<?xml version="1.0" standalone="no"?><!DOCTYPE svg PUBLIC "-//W3C//DTD SVG 1.1//EN" "http://www.w3.org/Graphics/SVG/1.1/DTD/svg11.dtd"><svg t="1704898501224" class="icon" viewBox="0 0 1024 1024" version="1.1" xmlns="http://www.w3.org/2000/svg" p-id="3456" xmlns:xlink="http://www.w3.org/1999/xlink" width="64" height="64"><path d="M614.399565 343.810891a134.14343 134.14343 0 0 0-83.967643-21.503909h-127.999456v179.199239h127.999456a135.167426 135.167426 0 0 0 83.967643-21.503909 85.247638 85.247638 0 0 0 25.599891-68.863707 76.799674 76.799674 0 0 0-25.599891-67.327714z" fill="#F63842" p-id="3457"></path><path d="M942.846169 216.067434l-192.255183-204.79913A38.143838 38.143838 0 0 0 722.943103 0.004352h-614.397388a40.191829 40.191829 0 0 0-38.911835 41.471824v941.052A40.191829 40.191829 0 0 0 108.545715 1024h806.90857a40.191829 40.191829 0 0 0 38.911835-41.471824V245.507309a42.751818 42.751818 0 0 0-11.519951-29.439875zM535.807899 568.321937h-132.863436V768.001088h-78.335667V256.003264H537.599891q183.039222 0 183.039222 155.647338c-0.511998 104.191557-62.207736 156.671334-184.831214 156.671335z" fill="#F63842" p-id="3458"></path></svg>