<?xml version="1.0" standalone="no"?><!DOCTYPE svg PUBLIC "-//W3C//DTD SVG 1.1//EN" "http://www.w3.org/Graphics/SVG/1.1/DTD/svg11.dtd"><svg t="1704898586700" class="icon" viewBox="0 0 1024 1024" version="1.1" xmlns="http://www.w3.org/2000/svg" p-id="6381" xmlns:xlink="http://www.w3.org/1999/xlink" width="64" height="64"><path d="M259.766085 1.787082A166.45396 166.45396 0 0 0 93.312124 168.241043v689.30321a166.45396 166.45396 0 0 0 166.453961 166.45396h519.019787A166.45396 166.45396 0 0 0 946.005725 856.523063V344.14101a63.313776 63.313776 0 0 0-18.636717-44.67706L647.307667 20.168501a63.058479 63.058479 0 0 0-44.67706-18.381419z" fill="#FC4A49" p-id="6382"></path><path d="M926.603116 299.46395L647.307667 20.168501A61.271396 61.271396 0 0 0 614.118994 3.318867a6.12714 6.12714 0 0 0-7.14833 6.12714v135.05237a194.536684 194.536684 0 0 0 194.536684 194.536683h135.05237a6.12714 6.12714 0 0 0 6.382437-7.148329 61.781991 61.781991 0 0 0-16.339039-32.422781z" fill="#F91716" p-id="6383"></path><path d="M809.42157 307.888767h124.074578a55.144257 55.144257 0 0 0-6.893032-8.424817L647.307667 20.168501a55.144257 55.144257 0 0 0-7.658924-6.893032v124.329875a170.53872 170.53872 0 0 0 169.772827 170.283423z" fill="#FFC3C3" p-id="6384"></path><path d="M260.531977 459.535473h67.653834c53.867769 0 80.674005 19.657906 80.674005 58.718422a53.867769 53.867769 0 0 1-22.976774 46.974737 95.991854 95.991854 0 0 1-56.420744 15.062552h-27.572128v65.611453h-41.358193z m66.122049 91.141202c27.827426 0 41.868788-10.722494 41.868787-32.42278a25.529749 25.529749 0 0 0-10.977792-22.721476 62.547884 62.547884 0 0 0-32.42278-6.382437h-23.232071v61.526693zM446.388546 459.535473h67.398536c53.867769 0 80.929303 19.657906 80.929303 58.718422a53.612472 53.612472 0 0 1-23.232071 46.974737 95.991854 95.991854 0 0 1-56.420744 15.062552H486.470251v65.611453h-40.081705zM512 549.655486c28.082723 0 42.124085-10.722494 42.124085-32.422781a25.529749 25.529749 0 0 0-11.233089-22.721476 62.547884 62.547884 0 0 0-30.890996-6.382437h-25.529749v61.526694zM672.837416 489.660577H614.118994V459.535473h158.284441v31.146293h-58.463124v155.220871H672.837416z" fill="#F5F6FA" p-id="6385"></path></svg>