<?xml version="1.0" standalone="no"?><!DOCTYPE svg PUBLIC "-//W3C//DTD SVG 1.1//EN" "http://www.w3.org/Graphics/SVG/1.1/DTD/svg11.dtd"><svg t="1704898491188" class="icon" viewBox="0 0 1024 1024" version="1.1" xmlns="http://www.w3.org/2000/svg" p-id="3150" xmlns:xlink="http://www.w3.org/1999/xlink" width="64" height="64"><path d="M731.391068 441.090477h-46.847801v189.183196h46.079804a97.023588 97.023588 0 0 0 71.423696-23.295901 99.583577 99.583577 0 0 0 22.271906-71.423696 102.399565 102.399565 0 0 0-21.759908-71.679695 96.255591 96.255591 0 0 0-71.167697-22.783904z" fill="#FC4949" p-id="3151"></path><path d="M942.846169 216.067434l-192.255183-204.79913A38.143838 38.143838 0 0 0 722.943103 0.004352h-614.397388a40.191829 40.191829 0 0 0-38.911835 41.471824v941.052A40.191829 40.191829 0 0 0 108.545715 1024h806.90857a40.191829 40.191829 0 0 0 38.911835-41.471824V245.507309a42.751818 42.751818 0 0 0-11.519951-29.439875zM285.184964 563.201958H218.881246v99.583577H179.201414v-255.998912h106.239549q91.391612 0 91.391611 76.799674T285.184964 563.201958z m297.214737 85.247638a125.951465 125.951465 0 0 1-75.26368 19.455917 126.463463 126.463463 0 0 1-71.935695-17.919923 88.831622 88.831622 0 0 1-34.815852-70.911699h37.375842a63.231731 63.231731 0 0 0 23.039902 43.263816 76.799674 76.799674 0 0 0 47.615797 12.031949 92.671606 92.671606 0 0 0 46.335803-10.239957 29.951873 29.951873 0 0 0 17.151927-26.879885 37.375841 37.375841 0 0 0-25.599891-34.047856 463.870029 463.870029 0 0 0-51.199782-17.407926 486.397933 486.397933 0 0 1-58.87975-20.99191 56.831758 56.831758 0 0 1-29.439875-51.199783A60.415743 60.415743 0 0 1 435.200326 420.866563a118.783495 118.783495 0 0 1 67.583713-18.175922 113.663517 113.663517 0 0 1 70.143702 18.943919 81.407654 81.407654 0 0 1 30.463871 61.695738h-38.655836a56.57576 56.57576 0 0 0-19.967915-35.839848 70.399701 70.399701 0 0 0-43.775814-12.287948 78.847665 78.847665 0 0 0-38.655836 7.679968 28.927877 28.927877 0 0 0-16.639929 27.903881 29.695874 29.695874 0 0 0 19.199918 27.135885 258.8149 258.8149 0 0 0 44.287812 15.871932 372.478417 372.478417 0 0 1 67.071715 25.599892 61.439739 61.439739 0 0 1 33.02386 55.295765 63.48773 63.48773 0 0 1-26.879886 54.527768z m249.34294-19.967915a121.599483 121.599483 0 0 1-93.951601 34.303854h-92.415607v-255.998912h93.183604a121.343484 121.343484 0 0 1 93.951601 34.815852 131.327442 131.327442 0 0 1 30.207871 93.183604 133.375433 133.375433 0 0 1-30.975868 94.463599z" fill="#FC4949" p-id="3152"></path><path d="M324.608796 451.842432a66.559717 66.559717 0 0 0-43.007817-10.751955H218.881246v89.59962H281.600979a67.839712 67.839712 0 0 0 42.49582-10.751955 43.263816 43.263816 0 0 0 14.335939-33.535857 38.911835 38.911835 0 0 0-13.823942-34.559853z" fill="#FC4949" p-id="3153"></path></svg>