<?xml version="1.0" standalone="no"?><!DOCTYPE svg PUBLIC "-//W3C//DTD SVG 1.1//EN" "http://www.w3.org/Graphics/SVG/1.1/DTD/svg11.dtd"><svg t="1704898590173" class="icon" viewBox="0 0 1024 1024" version="1.1" xmlns="http://www.w3.org/2000/svg" p-id="6536" xmlns:xlink="http://www.w3.org/1999/xlink" width="64" height="64"><path d="M265.007522 29.072555a162.011162 162.011162 0 0 0-162.011162 162.011163v670.90512a162.011162 162.011162 0 0 0 162.011162 162.011162h505.166708a162.011162 162.011162 0 0 0 162.011162-162.011162V362.288765a62.369328 62.369328 0 0 0-17.890803-43.484591L642.453773 46.963358a62.617811 62.617811 0 0 0-43.733074-17.890803z" fill="#FF803F" p-id="6537"></path><path d="M914.294589 318.804174L642.453773 46.963358A61.623878 61.623878 0 0 0 611.393351 30.563455a6.212084 6.212084 0 0 0-7.206018 5.963602v131.447706a189.344334 189.344334 0 0 0 189.344334 189.344334h131.69619a5.963601 5.963601 0 0 0 5.963601-6.957534 61.623878 61.623878 0 0 0-16.896869-31.557389z" fill="#F3671E" p-id="6538"></path><path d="M799.992235 327.004125h121.011405a69.078379 69.078379 0 0 0-6.709051-8.199951L642.453773 46.963358a69.078379 69.078379 0 0 0-8.199951-6.709051v121.011405a165.738413 165.738413 0 0 0 165.738413 165.738413z" fill="#FECEB4" p-id="6539"></path><path d="M376.328076 655.996117l-41.248241-69.078379h-27.830138v69.078379h-40.254308v-182.386799H338.061636q74.545013 0 74.545013 55.16331a51.436059 51.436059 0 0 1-38.26644 52.429993l46.963358 74.545013z m-69.078379-97.90245h24.848337c26.587721 0 40.005824-9.690852 40.005824-29.321039a22.363504 22.363504 0 0 0-10.436302-20.62412 59.636011 59.636011 0 0 0-29.569522-5.715118h-24.848337zM545.793739 609.032759h-64.854161l-14.163553 46.963358h-40.751274l64.357195-182.386799H536.848338l64.605678 182.386799h-41.496724zM536.848338 580.705654l-5.963601-19.87867-8.945402-29.569522-4.224217-14.909003-4.224218-15.157486H512q-7.454501 29.818005-17.145353 59.636011l-5.963601 19.87867zM735.63504 655.996117l-42.242174-69.078379h-27.830139v69.078379h-40.005823v-182.386799h69.823829q74.545013 0 74.545013 55.16331a51.436059 51.436059 0 0 1-38.26644 52.429993l46.963358 74.545013z m-69.078379-97.90245h26.090755c26.587721 0 39.75734-9.690852 39.75734-29.321039a22.611987 22.611987 0 0 0-10.187818-20.62412 60.381461 60.381461 0 0 0-29.569522-5.715118h-27.084689z" fill="#F5F6FA" p-id="6540"></path></svg>