<?xml version="1.0" standalone="no"?>
<!DOCTYPE svg PUBLIC "-//W3C//DTD SVG 1.1//EN" "http://www.w3.org/Graphics/SVG/1.1/DTD/svg11.dtd"><svg t="1704898555198" class="icon" viewBox="0 0 1031 1024" version="1.1" xmlns="http://www.w3.org/2000/svg" p-id="5296" xmlns:xlink="http://www.w3.org/1999/xlink" width="64.4375" height="64">
  <path d="M323.166237 0a156.541149 156.541149 0 0 0-156.541149 156.541149v648.253224a156.541149 156.541149 0 0 0 156.541149 156.541149h488.110668a156.541149 156.541149 0 0 0 156.541149-156.541149v-482.588511A59.303165 59.303165 0 0 0 950.531301 279.709261L687.868699 17.526846a59.543259 59.543259 0 0 0-42.016413-17.526846z" fill="#3F70FF" p-id="5297"></path>
  <path d="M950.531301 279.709261L687.868699 17.526846a58.102696 58.102696 0 0 0-30.491911-16.086283 5.762251 5.762251 0 0 0-6.722626 6.002344V135.652989a182.951465 182.951465 0 0 0 182.951465 182.951466H960.375147a6.002345 6.002345 0 0 0 5.76225-6.96272A56.902227 56.902227 0 0 0 950.531301 279.709261z" fill="#2A58D8" p-id="5298"></path>
  <path d="M840.328253 288.112544h116.925674a51.860258 51.860258 0 0 0-6.722626-8.403283L687.868699 17.526846a66.746073 66.746073 0 0 0-7.923095-6.482532v116.68558A160.382649 160.382649 0 0 0 840.328253 288.112544z" fill="#C6E1FF" p-id="5299"></path>
  <path d="M412.481125 459.779601A160.142556 160.142556 0 0 1 456.178195 341.893552a155.820868 155.820868 0 0 1 116.205392-43.216881 152.939742 152.939742 0 0 1 105.161079 35.773974 120.046893 120.046893 0 0 1 40.095662 93.636577q0 58.822978-78.750762 123.408206a111.163423 111.163423 0 0 0-48.018757 87.634232v12.244783H535.409144v-6.482532a195.676436 195.676436 0 0 1 9.123564-69.867292 164.944431 164.944431 0 0 1 42.016413-50.899883l22.328722-19.68769A112.363892 112.363892 0 0 0 654.255569 423.765533a70.347479 70.347479 0 0 0-24.009379-55.461664 88.594607 88.594607 0 0 0-61.464009-21.608441q-96.037515 0-97.237984 112.363892z m196.876905 283.070575a41.296131 41.296131 0 0 1-40.095662 42.736694h-12.965064a41.296131 41.296131 0 0 1-39.855569-42.736694 41.056038 41.056038 0 0 1 39.855569-42.4966h12.965064a41.296131 41.296131 0 0 1 40.095662 42.4966z" fill="#F5F6FA" p-id="5300"></path>
</svg>