<?xml version="1.0" standalone="no"?><!DOCTYPE svg PUBLIC "-//W3C//DTD SVG 1.1//EN" "http://www.w3.org/Graphics/SVG/1.1/DTD/svg11.dtd"><svg t="1704901467341" class="icon" viewBox="0 0 1038 1024" version="1.1" xmlns="http://www.w3.org/2000/svg" p-id="12145" xmlns:xlink="http://www.w3.org/1999/xlink" width="64.875" height="64"><path d="M164.107022 0a163.318982 163.318982 0 0 0-163.318983 163.318982v676.32094a163.318982 163.318982 0 0 0 163.318983 163.318982h508.994129a163.068493 163.068493 0 0 0 163.318982-163.318982v-503.483366a61.870841 61.870841 0 0 0-18.035225-43.835617L544.349683 18.285714a61.620352 61.620352 0 0 0-43.835616-18.285714z" fill="#41CC8B" p-id="12146"></path><path d="M818.384908 292.320939L544.349683 18.285714A60.618395 60.618395 0 0 0 512.53755 1.502935a6.011742 6.011742 0 0 0-7.013699 6.262231v132.508807a190.872798 190.872798 0 0 0 190.872799 190.872798h132.508806a6.51272 6.51272 0 0 0 6.262231-7.264188 61.620352 61.620352 0 0 0-16.782779-31.561644z" fill="#05B25F" p-id="12147"></path><path d="M703.159859 300.587084h121.988258a54.105675 54.105675 0 0 0-6.763209-8.266145L544.349683 18.285714a54.105675 54.105675 0 0 0-8.266145-6.763209v121.737769a167.32681 167.32681 0 0 0 167.076321 167.32681z" fill="#B0F9D7" p-id="12148"></path><path d="M156.091366 390.011742h369.471624V678.324853H156.091366z" fill="#F5F6FA" p-id="12149"></path><path d="M692.138333 678.324853l-124.242662-82.661448V472.923679l124.242662-82.911937V678.324853z" fill="#F5F6FA" p-id="12150"></path></svg>