<?xml version="1.0" standalone="no"?><!DOCTYPE svg PUBLIC "-//W3C//DTD SVG 1.1//EN" "http://www.w3.org/Graphics/SVG/1.1/DTD/svg11.dtd"><svg t="1704898495817" class="icon" viewBox="0 0 1024 1024" version="1.1" xmlns="http://www.w3.org/2000/svg" p-id="3304" xmlns:xlink="http://www.w3.org/1999/xlink" width="64" height="64"><path d="M942.846169 216.067434l-192.255183-204.79913A38.143838 38.143838 0 0 0 722.943103 0.004352h-614.397388a40.191829 40.191829 0 0 0-38.911835 41.471824v941.052A40.191829 40.191829 0 0 0 108.545715 1024h806.90857a40.191829 40.191829 0 0 0 38.911835-41.471824V245.507309a42.751818 42.751818 0 0 0-11.519951-29.439875zM647.935422 716.801306h-70.143702l-76.799673-277.75882L422.65638 716.801306h-70.143702L226.817212 345.602883h83.967643l78.335667 281.598803 76.799674-281.598803h70.143702l76.799673 281.598803 78.335667-281.598803h83.967644z" fill="#4070FF" p-id="3305"></path></svg>